<svg xmlns="http://www.w3.org/2000/svg" viewBox="0 0 217.24 338.06"><defs><style>.cls-1{fill:#939393;}.cls-2{fill:#ddd;}</style></defs><title>svg logo</title><g id="Capa_2" data-name="Capa 2"><g id="Capa_2-2" data-name="Capa 2"><path class="cls-1" d="M128.29,61.18,213.58.28a1.41,1.41,0,0,1,2.26.88l.29,93.45a1.4,1.4,0,0,1-2.18.94l-15.11-9.2a1.53,1.53,0,0,0-.87-.22L162,87.68a1.41,1.41,0,0,1-1.31-.67L149.77,67.37a1.33,1.33,0,0,0-1-.64L128.9,63.2A1.11,1.11,0,0,1,128.29,61.18ZM151.71,52l51.11-29.57a.41.41,0,0,1,.62.31l6.15,54.85a.42.42,0,0,0,.83,0V10.36a.42.42,0,0,0-.66-.34l-58.5,41.26A.42.42,0,0,0,151.71,52Z"/><path class="cls-2" d="M1.81,312.22A7.88,7.88,0,0,1,0,306.67V290.24a7.89,7.89,0,0,1,1.81-5.55,6.82,6.82,0,0,1,5.27-2,6.8,6.8,0,0,1,5.26,2,7.9,7.9,0,0,1,1.82,5.55v3.24H9.61v-3.54c0-1.9-.8-2.84-2.4-2.84s-2.4.94-2.4,2.84V307c0,1.87.8,2.8,2.4,2.8s2.4-.93,2.4-2.8v-4.67h4.55v4.32a7.88,7.88,0,0,1-1.82,5.55,6.8,6.8,0,0,1-5.26,2A6.83,6.83,0,0,1,1.81,312.22Z"/><path class="cls-2" d="M17,283.17H30.15v4.36h-8.3v8.09h6.59V300H21.85v9.39h8.3v4.37H17Z"/><path class="cls-2" d="M34,312.2a8.22,8.22,0,0,1-1.79-5.7v-1.75H36.7v2.1q0,3,2.49,3a2.34,2.34,0,0,0,1.86-.72,3.52,3.52,0,0,0,.63-2.34,6.53,6.53,0,0,0-.87-3.39,16.28,16.28,0,0,0-3.23-3.51,19.39,19.39,0,0,1-4.16-4.74,9.77,9.77,0,0,1-1.18-4.79,8,8,0,0,1,1.84-5.61,6.87,6.87,0,0,1,5.33-2,6.61,6.61,0,0,1,5.22,2,8.28,8.28,0,0,1,1.77,5.7v1.27H41.86v-1.58a3.54,3.54,0,0,0-.61-2.29,2.24,2.24,0,0,0-1.8-.72c-1.6,0-2.4,1-2.4,2.92a5.77,5.77,0,0,0,.9,3.11,17,17,0,0,0,3.25,3.49,18,18,0,0,1,4.15,4.76,10.58,10.58,0,0,1,1.14,5,8.19,8.19,0,0,1-1.86,5.77,7,7,0,0,1-5.39,2A6.77,6.77,0,0,1,34,312.2Z"/><path class="cls-2" d="M52.82,283.17h6.51l5,30.58H59.51l-.87-6.07v.08H53.17l-.87,6H47.84Zm5.25,20.44L55.93,288.5h-.09l-2.1,15.11Z"/><path class="cls-2" d="M66.63,283.17h7.12c2.48,0,4.28.57,5.42,1.72s1.71,2.92,1.71,5.31v1.88q0,4.76-3.15,6v.09a3.76,3.76,0,0,1,2.47,2.14,10.76,10.76,0,0,1,.72,4.32V310a20,20,0,0,0,.09,2.12,5.16,5.16,0,0,0,.43,1.59H76.55a6.66,6.66,0,0,1-.35-1.4,20.31,20.31,0,0,1-.09-2.36V304.4a4.78,4.78,0,0,0-.67-2.93,2.9,2.9,0,0,0-2.34-.83H71.44v13.11H66.63Zm6.56,13.1a2.86,2.86,0,0,0,2.16-.74,3.51,3.51,0,0,0,.72-2.49v-2.36a3.88,3.88,0,0,0-.59-2.4,2.21,2.21,0,0,0-1.86-.75H71.44v8.74Z"/><path class="cls-2" d="M90,283.17h4.85L98,306.89h.09l3.14-23.72h4.41L101,313.75H94.59Z"/><path class="cls-2" d="M107.92,283.17h4.81v30.58h-4.81Z"/><path class="cls-2" d="M117.27,312.2a8.22,8.22,0,0,1-1.79-5.7v-1.75H120v2.1q0,3,2.49,3a2.34,2.34,0,0,0,1.86-.72,3.52,3.52,0,0,0,.63-2.34,6.53,6.53,0,0,0-.87-3.39,16.28,16.28,0,0,0-3.23-3.51,19.32,19.32,0,0,1-4.15-4.74,9.66,9.66,0,0,1-1.18-4.79,8,8,0,0,1,1.83-5.61,6.87,6.87,0,0,1,5.33-2,6.61,6.61,0,0,1,5.22,2,8.28,8.28,0,0,1,1.77,5.7v1.27h-4.54v-1.58a3.54,3.54,0,0,0-.61-2.29,2.24,2.24,0,0,0-1.8-.72c-1.6,0-2.4,1-2.4,2.92a5.77,5.77,0,0,0,.9,3.11,17,17,0,0,0,3.25,3.49,18,18,0,0,1,4.15,4.76,10.58,10.58,0,0,1,1.14,5,8.19,8.19,0,0,1-1.86,5.77,7,7,0,0,1-5.39,2A6.77,6.77,0,0,1,117.27,312.2Z"/><path class="cls-2" d="M134.07,312.22a7.88,7.88,0,0,1-1.81-5.55V290.24a7.89,7.89,0,0,1,1.81-5.55,8.05,8.05,0,0,1,10.53,0,7.89,7.89,0,0,1,1.81,5.55v3.24h-4.54v-3.54c0-1.9-.8-2.84-2.4-2.84s-2.41.94-2.41,2.84V307c0,1.87.8,2.8,2.41,2.8s2.4-.93,2.4-2.8v-4.67h4.54v4.32a7.88,7.88,0,0,1-1.81,5.55,8,8,0,0,1-10.53,0Z"/><path class="cls-2" d="M153,283.17h6.51l5,30.58h-4.8l-.88-6.07v.08h-5.46l-.87,6H148Zm5.24,20.44-2.14-15.11H156l-2.1,15.11Z"/><path class="cls-2" d="M166.82,283.17h7.12q3.7,0,5.42,1.72t1.7,5.31v1.88q0,4.76-3.15,6v.09a3.74,3.74,0,0,1,2.47,2.14,10.76,10.76,0,0,1,.72,4.32V310a20,20,0,0,0,.09,2.12,5.48,5.48,0,0,0,.44,1.59h-4.9a6.61,6.61,0,0,1-.34-1.4,20.31,20.31,0,0,1-.09-2.36V304.4a4.77,4.77,0,0,0-.68-2.93,2.88,2.88,0,0,0-2.34-.83h-1.66v13.11h-4.8Zm6.55,13.1a2.86,2.86,0,0,0,2.16-.74,3.51,3.51,0,0,0,.72-2.49v-2.36a3.81,3.81,0,0,0-.59-2.4,2.21,2.21,0,0,0-1.85-.75h-2.19v8.74Z"/><path class="cls-2" d="M184.42,283.17h7.13q3.7,0,5.42,1.72t1.7,5.31v1.88q0,4.76-3.15,6v.09a3.74,3.74,0,0,1,2.47,2.14,10.76,10.76,0,0,1,.72,4.32V310a20,20,0,0,0,.09,2.12,5.18,5.18,0,0,0,.44,1.59h-4.9a7.35,7.35,0,0,1-.35-1.4,21,21,0,0,1-.08-2.36V304.4a4.77,4.77,0,0,0-.68-2.93,2.88,2.88,0,0,0-2.34-.83h-1.66v13.11h-4.81Zm6.56,13.1a2.86,2.86,0,0,0,2.16-.74,3.51,3.51,0,0,0,.72-2.49v-2.36a3.81,3.81,0,0,0-.59-2.4,2.21,2.21,0,0,0-1.85-.75h-2.19v8.74Z"/><path class="cls-2" d="M205.75,283.17h6.51l5,30.58h-4.81l-.87-6.07v.08H206.1l-.88,6h-4.45ZM211,303.61l-2.14-15.11h-.09l-2.1,15.11Z"/><path class="cls-2" d="M1.91,321.6H5.8a3.74,3.74,0,0,1,2.86,1,4.24,4.24,0,0,1,.95,3v8.21a4.26,4.26,0,0,1-.95,3,3.74,3.74,0,0,1-2.86,1H1.91Zm3.85,13.91a1.24,1.24,0,0,0,1-.37,1.8,1.8,0,0,0,.34-1.21v-8.44a1.77,1.77,0,0,0-.34-1.2,1.21,1.21,0,0,0-1-.37H4.46v11.59Z"/><path class="cls-2" d="M16,321.6h2.55v16.23H16Z"/><path class="cls-2" d="M25.56,337a4.33,4.33,0,0,1-.95-3v-.93H27v1.11c0,1,.44,1.58,1.32,1.58a1.28,1.28,0,0,0,1-.38,1.9,1.9,0,0,0,.33-1.24,3.44,3.44,0,0,0-.46-1.8,8.53,8.53,0,0,0-1.72-1.87,10.18,10.18,0,0,1-2.2-2.51,5.12,5.12,0,0,1-.63-2.54,4.23,4.23,0,0,1,1-3,3.67,3.67,0,0,1,2.83-1.05,3.53,3.53,0,0,1,2.77,1.05,4.43,4.43,0,0,1,.93,3v.67H29.75v-.84a1.83,1.83,0,0,0-.32-1.21,1.17,1.17,0,0,0-.95-.39c-.85,0-1.28.52-1.28,1.56a3,3,0,0,0,.48,1.64,9.14,9.14,0,0,0,1.73,1.86,9.6,9.6,0,0,1,2.2,2.52,5.65,5.65,0,0,1,.6,2.67,4.38,4.38,0,0,1-1,3.06,3.72,3.72,0,0,1-2.87,1.07A3.55,3.55,0,0,1,25.56,337Z"/><path class="cls-2" d="M38.31,321.6h6.95v2.32h-4.4v4.28h3.5v2.32h-3.5v5h4.4v2.32H38.31Z"/><path class="cls-2" d="M51.36,321.6h3.2L57,331.31h.05V321.6h2.27v16.23H56.74L53.68,326h0v11.85H51.36Zm.79-1.74a4.29,4.29,0,0,1,1-1.47,1.65,1.65,0,0,1,1.16-.48A2,2,0,0,1,55,318a3.31,3.31,0,0,1,.66.32,4,4,0,0,0,.41.21.88.88,0,0,0,.38.09.68.68,0,0,0,.49-.21,2.84,2.84,0,0,0,.44-.69l1.22.74a4.29,4.29,0,0,1-1,1.47,1.64,1.64,0,0,1-1.16.48,2.07,2.07,0,0,1-.73-.12,4.9,4.9,0,0,1-.66-.32l-.4-.21a.92.92,0,0,0-.38-.09.67.67,0,0,0-.49.21,2.35,2.35,0,0,0-.44.69Z"/><path class="cls-2" d="M67.87,321.6h3.45L74,337.83H71.42L71,334.6v0h-2.9l-.46,3.18H65.22Zm2.78,10.85-1.14-8h0l-1.11,8Z"/><path class="cls-2" d="M79.83,321.6h3.9a3.73,3.73,0,0,1,2.85,1,4.24,4.24,0,0,1,1,3v8.21a4.26,4.26,0,0,1-1,3,3.73,3.73,0,0,1-2.85,1h-3.9Zm3.85,13.91a1.24,1.24,0,0,0,1-.37,1.75,1.75,0,0,0,.34-1.21v-8.44a1.72,1.72,0,0,0-.34-1.2,1.21,1.21,0,0,0-1-.37h-1.3v11.59Z"/><path class="cls-2" d="M94.69,337a4.25,4.25,0,0,1-1-3v-8.53a4.28,4.28,0,0,1,1-3,4.43,4.43,0,0,1,5.75,0,4.28,4.28,0,0,1,1,3V334a4.25,4.25,0,0,1-1,3,4.4,4.4,0,0,1-5.75,0Zm4.2-2.85v-8.86c0-1.06-.44-1.6-1.32-1.6s-1.33.54-1.33,1.6v8.86c0,1.07.44,1.6,1.33,1.6S98.89,335.21,98.89,334.14Z"/><path class="cls-2" d="M107.79,321.6h3.78a3.89,3.89,0,0,1,2.87.91,3.84,3.84,0,0,1,.91,2.82v1c0,1.68-.56,2.75-1.67,3.2v0a2,2,0,0,1,1.31,1.14,5.81,5.81,0,0,1,.38,2.29v2.86a11,11,0,0,0,0,1.12,2.9,2.9,0,0,0,.23.85h-2.6a3.87,3.87,0,0,1-.18-.75,11,11,0,0,1-.05-1.25v-3a2.52,2.52,0,0,0-.36-1.55,1.53,1.53,0,0,0-1.24-.44h-.88v7h-2.55Zm3.48,6.95a1.55,1.55,0,0,0,1.15-.39,1.89,1.89,0,0,0,.38-1.32v-1.25a2.13,2.13,0,0,0-.31-1.28,1.2,1.2,0,0,0-1-.39h-1.16v4.63Z"/><path class="cls-2" d="M130.9,337a4.28,4.28,0,0,1-1-3v-8.53a4.29,4.29,0,0,1,1-3,4.34,4.34,0,0,1,5.66,0,4.29,4.29,0,0,1,1,3v1.39h-2.41v-1.56c0-1.06-.44-1.6-1.32-1.6s-1.32.54-1.32,1.6v8.88c0,1,.44,1.58,1.32,1.58s1.32-.53,1.32-1.58V331h-1.27v-2.32h3.68V334a4.28,4.28,0,0,1-1,3,4.31,4.31,0,0,1-5.66,0Z"/><path class="cls-2" d="M143.82,321.6h3.78a3.26,3.26,0,0,1,3.78,3.73v1c0,1.68-.56,2.75-1.67,3.2v0a2,2,0,0,1,1.31,1.14,5.81,5.81,0,0,1,.38,2.29v2.86a8.71,8.71,0,0,0,0,1.12,2.63,2.63,0,0,0,.23.85h-2.6a3.87,3.87,0,0,1-.18-.75,9,9,0,0,1-.05-1.25v-3a2.52,2.52,0,0,0-.36-1.55,1.53,1.53,0,0,0-1.24-.44h-.88v7h-2.55Zm3.48,6.95a1.51,1.51,0,0,0,1.14-.39,1.84,1.84,0,0,0,.39-1.32v-1.25a2.05,2.05,0,0,0-.32-1.28,1.18,1.18,0,0,0-1-.39h-1.16v4.63Z"/><path class="cls-2" d="M159.77,321.6h3.45l2.65,16.23h-2.55l-.47-3.23v0H160l-.46,3.18h-2.36Zm2-3.76h2.78L162,320.51h-1.92Zm.81,14.61-1.14-8h0l-1.11,8Z"/><path class="cls-2" d="M171.73,321.6h6.75v2.32h-4.2v4.52h3.29v2.32h-3.29v7.07h-2.55Z"/><path class="cls-2" d="M184.34,321.6h2.55v16.23h-2.55Z"/><path class="cls-2" d="M194.23,337a4.16,4.16,0,0,1-1-2.94v-8.72a4.18,4.18,0,0,1,1-2.94,4.28,4.28,0,0,1,5.59,0,4.18,4.18,0,0,1,1,2.94v1.72h-2.41v-1.88c0-1-.43-1.51-1.28-1.51s-1.27.51-1.27,1.51v9.07c0,1,.42,1.48,1.27,1.48s1.28-.49,1.28-1.48v-2.49h2.41v2.3a4.16,4.16,0,0,1-1,2.94,4.25,4.25,0,0,1-5.59,0Z"/><path class="cls-2" d="M207.8,337a4.25,4.25,0,0,1-1-3v-8.53a4.28,4.28,0,0,1,1-3,3.77,3.77,0,0,1,2.88-1.06,3.73,3.73,0,0,1,2.87,1.06,4.23,4.23,0,0,1,1,3V334a4.21,4.21,0,0,1-1,3,3.73,3.73,0,0,1-2.87,1.07A3.77,3.77,0,0,1,207.8,337Zm4.2-2.85v-8.86c0-1.06-.44-1.6-1.32-1.6s-1.32.54-1.32,1.6v8.86c0,1.07.44,1.6,1.32,1.6S212,335.21,212,334.14Z"/><path class="cls-2" d="M104.52,249.16V136.37L96,116.48,70.51,88.41c-.37-.42-1.16-.13-1.05.39l2.79,13.64c.08.36-.32.67-.74.57L23.78,92.18c-.52-.12-1,.36-.66.75l9,12a.46.46,0,0,1-.21.7l-28,13.37a.46.46,0,0,0-.2.72l12.34,15,8.79,18.9c-5.54,7.46-12.56,17.29-14,19.33-.14.19,0,.43.25.47l14.53,2.41s17.08,20.89,6.75,32.74a.3.3,0,0,0,.24.5c1.76.17,5.75.15,11.15.12l6.66,9.06,8.15-15.13,19.6,60,16.42,7.58a.13.13,0,0,0,.17-.17l-9.72-20.9a.39.39,0,0,1,.35-.55ZM70.3,142.56H53.58a.59.59,0,0,1-.42-.17l-26-25.17c-.24-.23.05-.59.39-.47L75,132.85l20.36,20.6c.4.41-.17,1-.71.72Z"/><path class="cls-1" d="M212,119.78a.47.47,0,0,0-.19-.73L183.6,105.69a.46.46,0,0,1-.21-.71l9-12c.29-.39-.13-.87-.65-.75l-48,10.83a.56.56,0,0,1-.74-.57l2.81-13.64c.11-.52-.67-.81-1.05-.39L119.2,116.48l-8.76,20.26V249.16h18.75a.39.39,0,0,1,.36.55c-1.43,3-8.39,17.84-9.75,20.72a.2.2,0,0,0,.27.26l16.25-7.46,19.73-60,8.2,15.13,6.37-8.61c4.59-.22,9.69-.44,11-.57.29,0,.42-.3.25-.5-10.32-11.82,6.68-32.75,6.68-32.75L203,173.47c.25,0,.38-.28.24-.46-1.37-1.93-7.73-10.82-13.09-18.09l9.4-20.12Zm-24.22-1.45L161.68,143.5a.61.61,0,0,1-.42.16H144.51l-25.4,12.09c-.34.16-.7-.2-.45-.45L139.81,134l47.54-16.1C187.7,117.74,188,118.09,187.75,118.33Z"/><path class="cls-2" d="M89,62.45,3.79,1.54a1.41,1.41,0,0,0-2.26.88L1.25,95.88c0,.94,1.26,1.49,2.17.94L18.5,87.61a1.67,1.67,0,0,1,.88-.22l35.88,1.55a1.4,1.4,0,0,0,1.31-.66L67.51,68.63a1.37,1.37,0,0,1,.95-.64l19.89-3.53A1.1,1.1,0,0,0,89,62.45ZM65.57,53.24l-51-29.57a.42.42,0,0,0-.62.31L7.77,78.83a.41.41,0,0,1-.82,0V11.62a.41.41,0,0,1,.65-.34L66,52.54A.42.42,0,0,1,65.57,53.24Z"/></g></g></svg>